<svg xmlns="http://www.w3.org/2000/svg" xmlns:xlink="http://www.w3.org/1999/xlink" width="48px" height="51px">
	<defs>
		<filter filterUnits="userSpaceOnUse" id="Filter_0" x="0px" y="0px" width="48px" height="51px">
			<feOffset in="SourceAlpha" dx="0" dy="1" />
			<feGaussianBlur result="blurOut" stdDeviation="0" />
			<feFlood flood-color="rgb(255, 255, 255)" result="floodOut" />
			<feComposite operator="atop" in="floodOut" in2="blurOut" />
			<feComponentTransfer>
				<feFuncA type="linear" slope="1" />
			</feComponentTransfer>
			<feMerge>
				<feMergeNode />
				<feMergeNode in="SourceGraphic" />
			</feMerge>
		</filter>
		<linearGradient id="PSgrad_0" x1="0%" x2="52.992%" y1="84.805%" y2="0%">
			<stop offset="0%" stop-color="rgb(0,0,0)" stop-opacity="0.3" />
			<stop offset="100%" stop-color="rgb(255,255,255)" stop-opacity="0.3" />
		</linearGradient>
	</defs>
	<g filter="url(#Filter_0)">
		<path fill-rule="evenodd" fill="rgb(128, 56, 194)" d="M44.495,36.070 L46.059,46.941 C46.193,47.868 45.818,48.811 45.083,49.401 C44.602,49.787 43.995,50.000 43.374,50.000 C43.055,50.000 42.743,49.946 42.445,49.838 L32.010,46.087 C29.469,46.976 26.807,47.426 24.086,47.426 C16.770,47.426 9.714,44.082 5.211,38.480 C1.223,33.520 -0.573,27.321 0.154,21.024 C0.882,14.727 4.046,9.087 9.064,5.144 C13.285,1.827 18.580,-0.000 23.974,-0.000 C31.353,-0.000 38.209,3.264 42.783,8.954 C49.063,16.764 49.727,27.598 44.495,36.070 ZM38.537,12.291 C34.997,7.888 29.691,5.362 23.977,5.362 C19.743,5.362 15.753,6.738 12.440,9.342 C8.556,12.394 6.107,16.759 5.543,21.633 C4.980,26.506 6.370,31.304 9.457,35.144 C12.943,39.478 18.408,42.066 24.076,42.067 C24.076,42.067 24.077,42.067 24.077,42.067 C26.432,42.067 28.725,41.632 30.893,40.774 C31.424,40.566 32.002,40.527 32.546,40.659 C32.764,40.681 32.979,40.730 33.188,40.804 L40.052,43.272 L39.072,36.459 C38.775,35.655 38.883,34.744 39.373,34.030 C43.957,27.351 43.621,18.614 38.537,12.291 ZM21.761,14.274 C18.358,15.762 15.747,18.618 14.597,22.109 C14.232,23.217 13.196,23.960 12.019,23.960 C11.732,23.960 11.449,23.915 11.175,23.827 C10.490,23.606 9.929,23.133 9.601,22.494 C9.272,21.856 9.215,21.129 9.439,20.448 C11.066,15.511 14.757,11.473 19.566,9.370 C19.913,9.217 20.283,9.140 20.664,9.140 C21.737,9.140 22.711,9.767 23.145,10.739 C23.749,12.089 23.129,13.676 21.761,14.274 Z" />
	</g>
	<path fill="url(#PSgrad_0)" d="M44.495,36.070 L46.059,46.941 C46.193,47.868 45.818,48.811 45.083,49.401 C44.602,49.787 43.995,50.000 43.374,50.000 C43.055,50.000 42.743,49.946 42.445,49.838 L32.010,46.087 C29.469,46.976 26.807,47.426 24.086,47.426 C16.770,47.426 9.714,44.082 5.211,38.480 C1.223,33.520 -0.573,27.321 0.154,21.024 C0.882,14.727 4.046,9.087 9.064,5.144 C13.285,1.827 18.580,-0.000 23.974,-0.000 C31.353,-0.000 38.209,3.264 42.783,8.954 C49.063,16.764 49.727,27.598 44.495,36.070 ZM38.537,12.291 C34.997,7.888 29.691,5.362 23.977,5.362 C19.743,5.362 15.753,6.738 12.440,9.342 C8.556,12.394 6.107,16.759 5.543,21.633 C4.980,26.506 6.370,31.304 9.457,35.144 C12.943,39.478 18.408,42.066 24.076,42.067 C24.076,42.067 24.077,42.067 24.077,42.067 C26.432,42.067 28.725,41.632 30.893,40.774 C31.424,40.566 32.002,40.527 32.546,40.659 C32.764,40.681 32.979,40.730 33.188,40.804 L40.052,43.272 L39.072,36.459 C38.775,35.655 38.883,34.744 39.373,34.030 C43.957,27.351 43.621,18.614 38.537,12.291 ZM21.761,14.274 C18.358,15.762 15.747,18.618 14.597,22.109 C14.232,23.217 13.196,23.960 12.019,23.960 C11.732,23.960 11.449,23.915 11.175,23.827 C10.490,23.606 9.929,23.133 9.601,22.494 C9.272,21.856 9.215,21.129 9.439,20.448 C11.066,15.511 14.757,11.473 19.566,9.370 C19.913,9.217 20.283,9.140 20.664,9.140 C21.737,9.140 22.711,9.767 23.145,10.739 C23.749,12.089 23.129,13.676 21.761,14.274 Z" />
</svg>
