<svg 
 xmlns="http://www.w3.org/2000/svg"
 xmlns:xlink="http://www.w3.org/1999/xlink"
 width="11px" height="18px">
<defs>
<filter filterUnits="userSpaceOnUse" id="Filter_0" x="0px" y="0px" width="11px" height="18px"  >
    <feOffset in="SourceAlpha" dx="0" dy="1" />
    <feGaussianBlur result="blurOut" stdDeviation="0" />
    <feFlood flood-color="rgb(255, 255, 255)" result="floodOut" />
    <feComposite operator="atop" in="floodOut" in2="blurOut" />
    <feComponentTransfer><feFuncA type="linear" slope="1"/></feComponentTransfer>
    <feMerge>
    <feMergeNode/>
    <feMergeNode in="SourceGraphic"/>
  </feMerge>
</filter>
<filter id="Filter_1">
    <feFlood flood-color="rgb(199, 199, 199)" flood-opacity="1" result="floodOut" />
    <feComposite operator="atop" in="floodOut" in2="SourceGraphic" result="compOut" />
    <feBlend mode="normal" in="compOut" in2="SourceGraphic" />
</filter>

</defs>
<g filter="url(#Filter_0)">
<g filter="url(#Filter_1)">
<path fill-rule="evenodd"  fill="rgb(255, 255, 255)"
 d="M2.265,5.354 C2.265,3.476 3.715,1.953 5.502,1.953 C7.290,1.953 8.739,3.476 8.739,5.354 C8.739,7.231 7.290,8.754 5.502,8.754 C3.715,8.754 2.265,7.231 2.265,5.354 ZM-0.000,5.779 C-0.000,7.201 1.641,10.199 1.641,10.199 L5.502,17.000 L9.141,10.199 C9.141,10.199 11.004,7.180 11.004,5.779 C11.004,2.586 8.541,-0.002 5.502,-0.002 C2.463,-0.002 -0.000,2.586 -0.000,5.779 Z"/>
</g></g>
</svg>